<?xml version="1.0" encoding="utf-8"?>
<!-- Generator: Adobe Illustrator 19.0.0, SVG Export Plug-In . SVG Version: 6.00 Build 0)  -->
<svg version="1.1" id="Layer_1" xmlns="http://www.w3.org/2000/svg" xmlns:xlink="http://www.w3.org/1999/xlink" x="0px" y="0px"
	 viewBox="0 0 148 150" style="enable-background:new 0 0 148 150;" xml:space="preserve">
<style type="text/css">
	.st0{display:none;}
	.st1{display:inline;fill:#92D5D6;}
	.st2{display:inline;fill:#D6BC92;}
	.st3{display:none;fill:#c63248;}
	.st4{display:none;fill-rule:evenodd;clip-rule:evenodd;fill:#c63248;}
	.st5{display:inline;}
	.st6{fill:#c63248;}
	.st7{display:none;fill:none;stroke:#c63248;stroke-width:2;stroke-miterlimit:10;}
	.st8{display:inline;fill-rule:evenodd;clip-rule:evenodd;fill:none;stroke:#c63248;stroke-width:2;stroke-miterlimit:10;}
	.st9{display:inline;fill:none;stroke:#c63248;stroke-width:2;stroke-miterlimit:10;}
	.st10{display:inline;fill:#c63248;}
	.st11{fill:none;stroke:#c63248;stroke-width:2;stroke-miterlimit:10;stroke-dasharray:5.8889,5.8889;}
	.st12{display:inline;fill-rule:evenodd;clip-rule:evenodd;fill:#c63248;}
	.st13{fill-rule:evenodd;clip-rule:evenodd;fill:#c63248;}
	.st14{display:inline;fill:none;stroke:#c63248;stroke-width:4;stroke-miterlimit:10;}
</style>
<g id="XMLID_224_" class="st0">
	<rect id="XMLID_225_" x="0" class="st1" width="150" height="150"/>
	<rect id="XMLID_226_" x="149.8" y="0" class="st2" width="150" height="150"/>
	<rect id="XMLID_228_" x="300.4" class="st1" width="150" height="150"/>
	<rect id="XMLID_227_" x="449.9" y="0" class="st2" width="150" height="150"/>
	<rect id="XMLID_232_" x="599.7" class="st1" width="150" height="150"/>
	<rect id="XMLID_231_" x="749.8" y="-0.3" class="st2" width="150" height="150"/>
	<rect id="XMLID_230_" x="899.8" y="-0.3" class="st1" width="150" height="150"/>
	<rect id="XMLID_233_" x="1199.7" y="0" class="st1" width="150" height="150"/>
	<rect id="XMLID_229_" x="1050" class="st2" width="150" height="150"/>
	<rect id="XMLID_208_" x="0" y="300.4" class="st1" width="150" height="150"/>
	<rect id="XMLID_207_" x="149.8" y="300.4" class="st2" width="150" height="150"/>
	<rect id="XMLID_206_" x="300.4" y="300.4" class="st1" width="150" height="150"/>
	<rect id="XMLID_205_" x="449.9" y="300.4" class="st2" width="150" height="150"/>
	<rect id="XMLID_204_" x="599.7" y="300.4" class="st1" width="150" height="150"/>
	<rect id="XMLID_203_" x="749.8" y="300.1" class="st2" width="150" height="150"/>
	<rect id="XMLID_202_" x="899.8" y="300.1" class="st1" width="150" height="150"/>
	<rect id="XMLID_201_" x="1199.7" y="300.4" class="st1" width="150" height="150"/>
	<rect id="XMLID_192_" x="1050" y="300.4" class="st2" width="150" height="150"/>
	<rect id="XMLID_255_" x="0" y="150" class="st2" width="150" height="150"/>
	<rect id="XMLID_254_" x="149.7" y="150" class="st1" width="150" height="150"/>
	<rect id="XMLID_253_" x="300.4" y="150" class="st2" width="150" height="150"/>
	<rect id="XMLID_252_" x="449.9" y="150" class="st1" width="150" height="150"/>
	<rect id="XMLID_251_" x="599.7" y="150" class="st2" width="150" height="150"/>
	<rect id="XMLID_257_" x="0" y="450.3" class="st2" width="150" height="150"/>
	<rect id="XMLID_256_" x="149.7" y="450.3" class="st1" width="150" height="150"/>
	<rect id="XMLID_211_" x="300.4" y="450.2" class="st2" width="150" height="150"/>
	<rect id="XMLID_210_" x="449.9" y="450.2" class="st1" width="150" height="150"/>
	<rect id="XMLID_209_" x="599.7" y="450.2" class="st2" width="150" height="150"/>
	<rect id="XMLID_250_" x="749.8" y="149.7" class="st1" width="150" height="150"/>
	<rect id="XMLID_249_" x="899.8" y="149.7" class="st2" width="150" height="150"/>
	<rect id="XMLID_248_" x="1199.7" y="150" class="st2" width="150" height="150"/>
	<rect id="XMLID_247_" x="1050" y="150" class="st1" width="150" height="150"/>
</g>
<path id="XMLID_8_" class="st3" d="M93.1,73.7l-1.4,3.8H88l3.1,2.4l-1.4,4.2l3.5-2.6l3.5,2.6l-1.4-4.2l3.1-2.4h-3.8L93.1,73.7z
	 M76.6,71.1l3.5-2.6l3.5,2.6l-1.4-4.2l3.1-2.4h-3.8l-1.4-3.8l-1.4,3.8H75l3.1,2.4L76.6,71.1z M103.5,51.7h-5.2l-1.9-5.2l-1.9,5.2
	h-5.2l4.2,3.2l-1.9,5.8l4.9-3.6l4.9,3.6l-1.9-5.8L103.5,51.7z M65.9,64.6c0-6.8,2.4-13.1,6.4-18c-14.5,1.3-25.8,13.6-25.8,28.4
	c0,15.8,12.8,28.6,28.5,28.6c8.9,0,18.1-4.1,23.3-10.5c-0.9,0.1-3,0.1-3.9,0.1C78.7,93.1,65.9,80.3,65.9,64.6z M75,100.9
	c-14.3,0-25.9-11.6-25.9-26c0-11.5,7.3-21.2,17.7-24.6c-2.2,4.4-3.5,9.3-3.5,14.3c0,16.3,12.5,29.7,28.4,31
	C87,98.9,81,100.9,75,100.9z"/>
<path id="XMLID_2_" class="st3" d="M97.7,75.2l7.3-7.4c0.7-0.7,0.7-1.8,0-2.5c-0.7-0.7-1.8-0.7-2.4,0l-7.3,7.4
	c-0.7,0.7-0.7,1.8,0,2.5C95.9,75.9,97,75.9,97.7,75.2z M114.4,92.5H98.9c0-11.6-9.3-21-20.7-21s-20.7,9.4-20.7,21H41.9
	c-1,0-1.7,0.8-1.7,1.8c0,1,0.8,1.8,1.7,1.8h72.5c1,0,1.7-0.8,1.7-1.8C116.2,93.3,115.4,92.5,114.4,92.5z M60.9,92.5
	c0-9.7,7.7-17.5,17.3-17.5s17.3,7.8,17.3,17.5H60.9z M58.6,75.2c0.7,0.7,1.8,0.7,2.4,0c0.7-0.7,0.7-1.8,0-2.5l-7.3-7.4
	c-0.7-0.7-1.8-0.7-2.4,0c-0.7,0.7-0.7,1.8,0,2.5L58.6,75.2z M76.4,55.7v10.5c0,1,0.8,1.8,1.7,1.8c1,0,1.7-0.8,1.7-1.8V55.7
	c0-1-0.8-1.8-1.7-1.8C77.2,54,76.4,54.8,76.4,55.7z"/>
<path id="XMLID_14_" class="st3" d="M60.9,59.9c0.6,0.6,1.6,0.6,2.2,0c0.6-0.6,0.6-1.6,0-2.2l-6.5-6.5c-0.6-0.6-1.6-0.6-2.2,0
	c-0.6,0.6-0.6,1.6,0,2.2L60.9,59.9z M95.4,59.9l6.5-6.5c0.6-0.6,0.6-1.6,0-2.2c-0.6-0.6-1.6-0.6-2.2,0l-6.5,6.5
	c-0.6,0.6-0.6,1.6,0,2.2C93.8,60.5,94.8,60.5,95.4,59.9z M56.8,75c0-0.8-0.7-1.5-1.5-1.5h-9.1c-0.8,0-1.5,0.7-1.5,1.5
	s0.7,1.5,1.5,1.5h9.1C56.2,76.5,56.8,75.8,56.8,75z M78.2,53.7c0.8,0,1.5-0.7,1.5-1.5V43c0-0.8-0.7-1.5-1.5-1.5
	c-0.8,0-1.5,0.7-1.5,1.5v9.1C76.6,53,77.3,53.7,78.2,53.7z M60.9,90.1l-6.5,6.5c-0.6,0.6-0.6,1.6,0,2.2c0.6,0.6,1.6,0.6,2.2,0
	l6.5-6.5c0.6-0.6,0.6-1.6,0-2.2C62.5,89.5,61.5,89.5,60.9,90.1z M95.4,90.1c-0.6-0.6-1.6-0.6-2.2,0c-0.6,0.6-0.6,1.6,0,2.2l6.5,6.5
	c0.6,0.6,1.6,0.6,2.2,0c0.6-0.6,0.6-1.6,0-2.2L95.4,90.1z M78.2,56.7c-10.1,0-18.3,8.2-18.3,18.3c0,10.1,8.2,18.3,18.3,18.3
	c10.1,0,18.3-8.2,18.3-18.3C96.4,64.9,88.2,56.7,78.2,56.7z M78.2,90.2c-8.4,0-15.2-6.8-15.2-15.2c0-8.4,6.8-15.2,15.2-15.2
	c8.4,0,15.2,6.8,15.2,15.2C93.4,83.4,86.6,90.2,78.2,90.2z M78.2,96.3c-0.8,0-1.5,0.7-1.5,1.5v9.1c0,0.8,0.7,1.5,1.5,1.5
	c0.8,0,1.5-0.7,1.5-1.5v-9.1C79.7,97,79,96.3,78.2,96.3z M110.1,73.5H101c-0.8,0-1.5,0.7-1.5,1.5s0.7,1.5,1.5,1.5h9.1
	c0.8,0,1.5-0.7,1.5-1.5S111,73.5,110.1,73.5z"/>
<path id="XMLID_25_" class="st4" d="M99.4,86.2c0-8.8-9.6-8.8-9.6-21.3c0-5.2-3-9.6-7.3-11.5c0.1-0.3,0.1-0.7,0.1-1
	c0-2.8-2.1-5-4.8-5c-2.6,0-4.8,2.2-4.8,5c0,0.3,0,0.7,0.1,1C69,55.4,66,59.8,66,65c0,12.5-9.6,12.5-9.6,21.3c0,3.8,6,7,14.4,8.2
	c0,0.2,0,0.3,0,0.5c0,4.1,3.2,7.5,7.2,7.5c4,0,7.2-3.4,7.2-7.5c0-0.2,0-0.3,0-0.5C93.4,93.3,99.4,90.1,99.4,86.2z M77.9,50
	c1.3,0,2.4,1.1,2.4,2.5S79.3,55,77.9,55c-1.3,0-2.4-1.1-2.4-2.5S76.6,50,77.9,50z M62.3,79.5c2.7-3,6.1-6.6,6.1-14.5
	c0-4.2,2.5-7.8,5.9-9.3c0.9,1.1,2.2,1.8,3.6,1.8c1.4,0,2.7-0.7,3.6-1.8c3.5,1.5,5.9,5.1,5.9,9.3c0,7.8,3.4,11.5,6.1,14.5
	c0.5,0.6,1,1.1,1.4,1.6c-2.3,2.3-9,3.9-17.1,3.9c-8,0-14.8-1.7-17.1-3.9C61.3,80.6,61.8,80,62.3,79.5z M77.9,100
	c-2.6,0-4.8-2.2-4.8-5c0-0.1,0-0.1,0-0.2c1.5,0.1,3.1,0.2,4.8,0.2c1.6,0,3.2-0.1,4.8-0.2c0,0.1,0,0.1,0,0.2
	C82.7,97.8,80.6,100,77.9,100z M77.9,92.5c-12.4,0-19.1-4.1-19.1-6.3c0-1.3,0.3-2.4,0.8-3.4c3.3,2.7,10.2,4.6,18.3,4.6
	c8.1,0,15-1.9,18.3-4.6c0.5,1,0.8,2,0.8,3.4C97,88.4,90.3,92.5,77.9,92.5z"/>
<path id="XMLID_31_" class="st3" d="M94.1,69.8V62c0-8.6-6.9-15.5-15.4-15.5c-8.5,0-15.4,7-15.4,15.5v7.8c-2.8,0-5.1,2.3-5.1,5.2
	v23.3c0,2.9,2.3,5.2,5.1,5.2h30.8c2.8,0,5.1-2.3,5.1-5.2V75C99.2,72.1,96.9,69.8,94.1,69.8z M65.9,62c0-7.2,5.7-13,12.8-13
	c7.1,0,12.8,5.8,12.8,13v7.8H65.9V62z M96.6,98.3c0,1.4-1.1,2.6-2.6,2.6H63.3c-1.4,0-2.6-1.2-2.6-2.6V75c0-1.4,1.1-2.6,2.6-2.6h28.2
	h2.6c1.4,0,2.6,1.2,2.6,2.6V98.3z M78.7,80.2c-2.8,0-5.1,2.3-5.1,5.2c0,1.3,0.5,2.5,1.3,3.4c0,0.1,0,0.3,0,0.4
	c0,2.1,1.7,3.9,3.8,3.9c2.1,0,3.8-1.7,3.8-3.9c0-0.1,0-0.3,0-0.4c0.8-0.9,1.3-2.1,1.3-3.4C83.8,82.5,81.5,80.2,78.7,80.2z M80,87.6
	v1.7c0,0.7-0.6,1.3-1.3,1.3c-0.7,0-1.3-0.6-1.3-1.3v-1.7c-0.8-0.4-1.3-1.3-1.3-2.2c0-1.4,1.1-2.6,2.6-2.6c1.4,0,2.6,1.2,2.6,2.6
	C81.2,86.3,80.7,87.1,80,87.6z"/>
<path id="XMLID_37_" class="st4" d="M77.8,47.7c-15.5,0-28,12.5-28,28c0,15.5,12.5,28,28,28c15.5,0,28-12.5,28-28
	C105.8,60.3,93.2,47.7,77.8,47.7z M77.8,101.2c-14.1,0-25.5-11.4-25.5-25.5c0-6.6,2.5-12.5,6.6-17.1l35.9,35.9
	C90.3,98.7,84.3,101.2,77.8,101.2z M96.6,92.8L60.7,56.9c4.5-4.1,10.5-6.6,17.1-6.6c14.1,0,25.5,11.4,25.5,25.5
	C103.2,82.3,100.7,88.3,96.6,92.8z"/>
<path id="XMLID_41_" class="st3" d="M79.7,86.2c-0.8,0-1.3-0.1-1.6-0.4c-0.3-0.2-0.5-0.7-0.5-1.4c0-0.3,0-0.7,0.1-1.2
	c0.1-0.5,0.2-1,0.3-1.4l1.5-5.2c0.1-0.5,0.2-1,0.3-1.6c0.1-0.6,0.1-1,0.1-1.2c0-1.1-0.4-2-1.2-2.7c-0.8-0.7-1.9-1-3.4-1
	c-0.8,0-1.7,0.1-2.6,0.4c-0.9,0.3-1.8,0.6-2.8,1l-0.4,1.6c0.3-0.1,0.6-0.2,1.1-0.3c0.4-0.1,0.8-0.2,1.2-0.2c0.8,0,1.3,0.1,1.6,0.4
	c0.3,0.3,0.4,0.7,0.4,1.4c0,0.4,0,0.8-0.1,1.2c-0.1,0.4-0.2,0.9-0.3,1.4l-1.5,5.2c-0.1,0.5-0.2,1-0.3,1.5c-0.1,0.4-0.1,0.9-0.1,1.3
	c0,1.1,0.4,1.9,1.2,2.6c0.8,0.7,1.9,1,3.4,1c1,0,1.8-0.1,2.5-0.4c0.7-0.2,1.7-0.6,2.9-1.1l0.4-1.6c-0.2,0.1-0.5,0.2-1,0.3
	C80.5,86.2,80.1,86.2,79.7,86.2z M78.8,60.7c-1,0-1.8,0.3-2.5,1c-0.7,0.6-1.1,1.4-1.1,2.3c0,0.9,0.4,1.7,1.1,2.3
	c0.7,0.6,1.6,1,2.5,1c1,0,1.8-0.3,2.5-1c0.7-0.6,1.1-1.4,1.1-2.3c0-0.9-0.4-1.7-1.1-2.3C80.6,61,79.8,60.7,78.8,60.7z M76,46.7
	c-15.5,0-28,12.5-28,28c0,15.5,12.5,28,28,28c15.5,0,28-12.5,28-28C104,59.3,91.5,46.7,76,46.7z M76,100.2
	c-14.1,0-25.5-11.4-25.5-25.5S61.9,49.3,76,49.3c14.1,0,25.5,11.4,25.5,25.5S90.1,100.2,76,100.2z"/>
<g id="XMLID_46_" class="st0">
	<g id="XMLID_95_" class="st5">
		<path id="XMLID_96_" class="st6" d="M64.7,50.9L45.1,95.7l3,0.4l5-11.6h23.8l5,11.6l2.9-0.4L65.3,50.9H64.7z M54.3,81.8l10.6-24.6
			h0.2l10.6,24.6H54.3z M105.8,68.8h-1.6L92.5,95.7l3.3,0.2l2.7-6.2h13.1l2.7,6.2l3.3-0.2L105.8,68.8z M99.5,87.1l5.4-12.9h0.1
			l5.5,12.9H99.5z"/>
	</g>
</g>
<path id="XMLID_52_" class="st4" d="M75,47c-15.5,0-28,12.5-28,28s12.5,28,28,28c15.5,0,28-12.5,28-28S90.5,47,75,47z M92.8,66.1
	L69.4,89.9C69.3,90,69.1,90,69,90c-0.2,0-0.3-0.1-0.4-0.2L56.2,77.3C56,77.1,56,76.9,56,76.7c0.1-0.2,0.3-0.4,0.5-0.4h5
	c0.2,0,0.3,0.1,0.4,0.2l6.9,7l18-18.3c0.1-0.1,0.3-0.2,0.4-0.2h5c0.2,0,0.5,0.1,0.5,0.4C93,65.6,93,65.9,92.8,66.1z"/>
<path id="XMLID_55_" class="st4" d="M74.7,47c-15.5,0-28,12.5-28,28s12.5,28,28,28c15.5,0,28-12.5,28-28S90.1,47,74.7,47z
	 M89.3,89.7c-0.6,0.6-1.6,0.6-2.2,0L75.1,77.6L63,89.7c-0.6,0.6-1.6,0.6-2.2,0c-0.6-0.6-0.6-1.6,0-2.2l12.1-12.1L60.8,63.3
	c-0.6-0.6-0.6-1.6,0-2.2c0.6-0.6,1.6-0.6,2.2,0l12.1,12.1l12.1-12.1c0.6-0.6,1.6-0.6,2.2,0c0.6,0.6,0.6,1.6,0,2.2L77.2,75.4
	l12.1,12.1C89.9,88.1,89.9,89.1,89.3,89.7z"/>
<path id="XMLID_47_" class="st4" d="M96.6,78.9c-0.7,0-1.2,0.6-1.2,1.2c0,11-9,20-20,20c-11,0-20-9-20-20c0-11,9-20,20-20h8.3
	l-7.7,7.7l0,0c-0.3,0.2-0.6,0.6-0.6,1c0,0.7,0.6,1.2,1.2,1.2c0.3,0,0.5-0.1,0.7-0.2l0,0l0.1-0.1c0.1-0.1,0.1-0.1,0.2-0.2l9.7-9.7
	l0,0c0.3-0.2,0.6-0.6,0.6-1s-0.2-0.8-0.6-1l0,0l-9.7-9.7c-0.1-0.1-0.1-0.1-0.2-0.2l-0.1-0.1l0,0c-0.2-0.1-0.4-0.2-0.7-0.2
	c-0.7,0-1.2,0.6-1.2,1.2c0,0.4,0.2,0.8,0.6,1l0,0l7.7,7.7h-8.3c-12.4,0-22.5,10.1-22.5,22.5s10.1,22.5,22.5,22.5
	s22.5-10.1,22.5-22.5C97.9,79.4,97.3,78.9,96.6,78.9z"/>
<path id="XMLID_50_" class="st7" d="M50.9,46.1h47.8c4.2,0,7.6,3.4,7.6,7.6v31.1c0,4.2-3.4,7.6-7.6,7.6H82.9l-14.4,14.6V92.5H51
	c-4.2,0-7.6-3.4-7.6-7.6V53.7C43.2,49.5,46.7,46.1,50.9,46.1z"/>
<g id="XMLID_1_" class="st0">
	<path id="XMLID_71_" class="st8" d="M63.8,67.1c2.2,0,4,1.8,4,4c0,2.2-1.8,4-4,4c-2.2,0-4-1.8-4-4C59.8,68.9,61.6,67.1,63.8,67.1z"
		/>
	<path id="XMLID_69_" class="st8" d="M75.8,67.1c2.2,0,4,1.8,4,4c0,2.2-1.8,4-4,4c-2.2,0-4-1.8-4-4C71.8,68.9,73.6,67.1,75.8,67.1z"
		/>
	<path id="XMLID_67_" class="st8" d="M87.8,67.1c2.2,0,4,1.8,4,4c0,2.2-1.8,4-4,4c-2.2,0-4-1.8-4-4C83.8,68.9,85.6,67.1,87.8,67.1z"
		/>
	<path id="XMLID_65_" class="st9" d="M51.4,47.1h47.8c4.2,0,7.6,3.4,7.6,7.6v31.1c0,4.2-3.4,7.6-7.6,7.6H83.4L69,108.1V93.5H51.5
		c-4.2,0-7.6-3.4-7.6-7.6V54.7C43.7,50.5,47.2,47.1,51.4,47.1z"/>
</g>
<g id="XMLID_144_" class="st0">
	<path id="XMLID_145_" class="st9" d="M50.4,47.1h47.8c4.2,0,7.6,3.4,7.6,7.6v31.1c0,4.2-3.4,7.6-7.6,7.6H82.4L68,108.1V93.5H50.5
		c-4.2,0-7.6-3.4-7.6-7.6V54.7C42.7,50.5,46.2,47.1,50.4,47.1z"/>
	<path id="XMLID_166_" class="st10" d="M61.9,74.6H72v10.1h6V74.6h10.1v-6H78.1V58.4h-6v10.1H61.9V74.6z"/>
</g>
<g id="XMLID_73_" class="st0">
	<g id="XMLID_74_" class="st5">
		<g id="XMLID_195_">
			<circle id="XMLID_196_" class="st11" cx="74.4" cy="74.6" r="30"/>
		</g>
	</g>
	<path id="XMLID_76_" class="st12" d="M88.7,89.8c-0.6,0.6-1.6,0.6-2.2,0L74.4,77.7L62.3,89.8c-0.6,0.6-1.6,0.6-2.2,0
		c-0.6-0.6-0.6-1.6,0-2.2l12.1-12.1L60.2,63.5c-0.6-0.6-0.6-1.6,0-2.2c0.6-0.6,1.6-0.6,2.2,0l12.1,12.1l12.1-12.1
		c0.6-0.6,1.6-0.6,2.2,0c0.6,0.6,0.6,1.6,0,2.2L76.6,75.6l12.1,12.1C89.3,88.3,89.3,89.2,88.7,89.8z"/>
</g>
<g id="XMLID_126_" class="st0">
	<g id="XMLID_146_" class="st5">
		<g id="XMLID_213_">
			<circle id="XMLID_214_" class="st11" cx="76.4" cy="74.6" r="30"/>
		</g>
	</g>
	<path id="XMLID_164_" class="st10" d="M63.9,78.6H74v10.1h6V78.6h10.1v-6H80.1V62.4h-6v10.1H63.9V78.6z"/>
</g>
<g id="XMLID_147_" class="st0">
	<g id="XMLID_193_" class="st5">
		<g id="XMLID_216_">
			<circle id="XMLID_217_" class="st11" cx="76.5" cy="75.6" r="30"/>
		</g>
	</g>
	<path id="XMLID_198_" class="st12" d="M79.9,61.1l-1.1,21.7h-4.6l-1.1-21.7H79.9z M76.6,92.9c-2.2,0-3.9-1.7-3.9-3.9
		c0-2.2,1.7-3.9,3.9-3.9c2.2,0,3.9,1.7,3.9,3.9C80.4,91.2,78.7,92.9,76.6,92.9z"/>
</g>
<g id="XMLID_79_" class="st0">
	<g id="XMLID_82_" class="st5">
		<g id="XMLID_219_">
			<circle id="XMLID_220_" class="st11" cx="73.7" cy="74.6" r="30"/>
		</g>
	</g>
	<path id="XMLID_80_" class="st12" d="M92.6,65.1L69.1,88.9c-0.1,0.1-0.3,0.2-0.4,0.2c-0.2,0-0.3-0.1-0.4-0.2L55.9,76.3
		c-0.2-0.2-0.2-0.4-0.1-0.6c0.1-0.2,0.3-0.4,0.5-0.4h5c0.2,0,0.3,0.1,0.4,0.2l6.9,7l18-18.3c0.1-0.1,0.3-0.2,0.4-0.2h5
		c0.2,0,0.5,0.1,0.5,0.4C92.8,64.7,92.8,64.9,92.6,65.1z"/>
</g>
<path id="XMLID_84_" class="st3" d="M73.7,45.6c-16.2,0-29.4,13.2-29.4,29.4c0,16.2,13.2,29.4,29.4,29.4c16.2,0,29.4-13.2,29.4-29.4
	C103.1,58.8,90,45.6,73.7,45.6z M73.7,101.7C59,101.7,47,89.7,47,75c0-14.8,12-26.7,26.7-26.7c14.8,0,26.7,12,26.7,26.7
	C100.4,89.7,88.5,101.7,73.7,101.7z M86.6,74L86.6,74l-0.2-0.1c0,0-0.1,0-0.1-0.1L67.9,63.3l0,0c-0.2-0.2-0.5-0.3-0.8-0.3
	c-0.7,0-1.3,0.6-1.3,1.3v21.4c0,0.7,0.6,1.3,1.3,1.3c0.3,0,0.6-0.1,0.8-0.3l0,0l18.4-10.5c0,0,0.1,0,0.1-0.1l0.2-0.1l0,0
	c0.3-0.2,0.5-0.6,0.5-1C87.1,74.6,86.9,74.2,86.6,74z"/>
<g id="XMLID_83_" class="st0">
	<path id="XMLID_109_" class="st8" d="M74,43.6c18.8,0,34,15,34,33.5c0,18.5-15.2,33.5-34,33.5c-18.8,0-34-15-34-33.5
		C40,58.6,55.2,43.6,74,43.6z"/>
	<polygon id="XMLID_111_" class="st12" points="86.3,74.9 71.4,60.7 68.9,63 82,75.6 68.9,88.2 71.4,90.6 86.3,76.3 85.5,75.6 	"/>
</g>
<g id="XMLID_93_" class="st0">
	<path id="XMLID_115_" class="st8" d="M73.8,110c-18.8,0-34-15-34-33.5C39.8,58,55,43,73.8,43c18.8,0,34,15,34,33.5
		C107.8,95,92.6,110,73.8,110z"/>
	<polygon id="XMLID_94_" class="st12" points="61.5,78.6 76.4,92.9 78.9,90.5 65.7,77.9 78.9,65.4 76.4,63 61.5,77.2 62.2,77.9 	"/>
</g>
<g id="XMLID_121_" class="st0">
	<path id="XMLID_123_" class="st8" d="M41,75.6c0-18.8,15-34,33.5-34c18.5,0,33.5,15.2,33.5,34c0,18.8-15,34-33.5,34
		C56,109.6,41,94.4,41,75.6z"/>
	<polygon id="XMLID_122_" class="st12" points="72.4,63.3 58.1,78.2 60.5,80.7 73.1,67.6 85.7,80.7 88,78.2 73.8,63.3 73.1,64.1
		"/>
</g>
<g id="XMLID_117_" class="st0">
	<path id="XMLID_119_" class="st8" d="M108,75.6c0,18.8-15,34-33.5,34C56,109.6,41,94.4,41,75.6c0-18.8,15-34,33.5-34
		C93,41.6,108,56.8,108,75.6z"/>
	<polygon id="XMLID_118_" class="st12" points="76.6,87.9 90.9,73 88.5,70.6 75.9,83.7 63.4,70.6 61,73 75.2,87.9 75.9,87.2 	"/>
</g>
<path id="XMLID_129_" class="st4" d="M74.3,42.6c-18.5,0-33.5,15-33.5,33.5c0,18.5,15,33.5,33.5,33.5c18.5,0,33.5-15,33.5-33.5
	C107.8,57.6,92.8,42.6,74.3,42.6z M72.9,92.1c-2.3,0-4.2-1.9-4.2-4.2c0-2.3,1.9-4.2,4.2-4.2c2.3,0,4.2,1.9,4.2,4.2
	C77.1,90.2,75.2,92.1,72.9,92.1z M76.2,76.7l-0.9,4.5h-4.9l-1-6.9c3-1.4,6.6-3.9,6.6-6.7s-1.3-3.8-3.2-3.8c-1.9,0-3.6,0.7-5.8,2.1
	l-2.8-5.7c3.2-2,6.2-2.8,9.6-2.8c5.1,0,10.1,2.5,10.1,8.5C83.9,71.2,80.2,74.6,76.2,76.7z"/>
<path id="XMLID_132_" class="st13" d="M75.2,43.9c-18.1,0-32.8,14.7-32.8,32.8s14.7,32.8,32.8,32.8c18.1,0,32.8-14.7,32.8-32.8
	S93.3,43.9,75.2,43.9z M78.5,61.2l-1.1,21.7h-4.6l-1.1-21.7H78.5z M75.2,93.1c-2.2,0-3.9-1.7-3.9-3.9c0-2.2,1.7-3.9,3.9-3.9
	c2.2,0,3.9,1.7,3.9,3.9C79,91.3,77.3,93.1,75.2,93.1z"/>
<g id="XMLID_138_" class="st0">
	<path id="XMLID_134_" class="st14" d="M70.4,45c-14.7,0-26.6,11.9-26.6,26.6c0,14.7,11.9,26.6,26.6,26.6C85.1,98.2,97,86.3,97,71.6
		C97,56.9,85.1,45,70.4,45z"/>
	<path id="XMLID_136_" class="st10" d="M105.6,107l-15-15c-0.7-0.7-1.8-0.7-2.5,0c-0.7,0.7-0.7,1.8,0,2.5l15,15
		c0.7,0.7,1.8,0.7,2.5,0C106.3,108.8,106.3,107.7,105.6,107z"/>
</g>
<path id="XMLID_125_" class="st4" d="M96.3,77.3c0-0.4-0.2-0.7-0.6-0.9l0,0l-6.5-3.1l6.5-3.1l0,0c0.3-0.2,0.6-0.5,0.6-0.9
	c0-0.4-0.2-0.7-0.6-0.9l0,0l-21-10l0,0c-0.1-0.1-0.3-0.1-0.4-0.1c-0.2,0-0.3,0-0.4,0.1l0,0l-21,10l0,0c-0.3,0.2-0.6,0.5-0.6,0.9
	c0,0.4,0.2,0.7,0.6,0.9l0,0l6.5,3.1l-6.5,3.1l0,0c-0.3,0.2-0.6,0.5-0.6,0.9s0.2,0.7,0.6,0.9l0,0l6.5,3.1l-6.5,3.1l0,0
	c-0.3,0.2-0.6,0.5-0.6,0.9s0.2,0.7,0.6,0.9l0,0l21,10l0,0c0.1,0.1,0.3,0.1,0.4,0.1c0.2,0,0.3,0,0.4-0.1l0,0l21-10l0,0
	c0.3-0.2,0.6-0.5,0.6-0.9s-0.2-0.7-0.6-0.9l0,0l-6.5-3.1l6.5-3.1l0,0C96.1,78.1,96.3,77.7,96.3,77.3z M55.6,69.3l18.7-8.9L93,69.3
	l-18.7,8.9L55.6,69.3z M93,85.3l-18.7,8.9l-18.7-8.9l6.1-2.9l12.2,5.8l0,0c0.1,0.1,0.3,0.1,0.4,0.1c0.2,0,0.3,0,0.4-0.1l0,0
	l12.2-5.8L93,85.3z M74.3,86.2l-18.7-8.9l6.1-2.9l12.2,5.8l0,0c0.1,0.1,0.3,0.1,0.4,0.1c0.2,0,0.3,0,0.4-0.1l0,0l12.2-5.8l6.1,2.9
	L74.3,86.2z"/>
<path id="XMLID_152_" class="st3" d="M74.8,92c0.6,0,1-0.4,1-1V67c0-0.6-0.4-1-1-1s-1,0.4-1,1v24C73.8,91.6,74.2,92,74.8,92z
	 M80.8,92c0.6,0,1-0.4,1-1l1.5-24c0-0.6-0.4-1-1-1c-0.6,0-1,0.4-1,1l-1.5,24C79.8,91.5,80.2,92,80.8,92z M91.8,60h-10v-4
	c0-1.1-0.9-2-2-2h-10c-1.1,0-2,0.9-2,2v4h-10c-0.6,0-1,0.4-1,1c0,0.6,0.4,1,1,1h2l2,32c0.3,2.2,1.8,4,4,4h18c2.2,0,3.6-1.8,4-4l2-32
	h2c0.6,0,1-0.4,1-1C92.8,60.4,92.3,60,91.8,60z M69.8,56h10v4h-10V56z M85.8,94c-0.1,1.1-0.9,2-2,2h-18c-1.1,0-1.8-0.9-2-2l-2-32h26
	L85.8,94z M68.8,92c0.6,0,1-0.5,1-1l-1.5-24c0-0.6-0.5-1-1-1c-0.6,0-1,0.5-1,1l1.5,24C67.8,91.6,68.3,92,68.8,92z"/>
<path id="XMLID_159_" class="st3" d="M74.5,48.8c-15.3,0-27.7,12.4-27.7,27.7c0,15.3,12.4,27.7,27.7,27.7
	c15.3,0,27.7-12.4,27.7-27.7C102.2,61.2,89.8,48.8,74.5,48.8z M74.5,101.6c-13.9,0-25.1-11.3-25.1-25.1s11.3-25.1,25.1-25.1
	c13.9,0,25.1,11.3,25.1,25.1S88.4,101.6,74.5,101.6z M85.8,75.2h-6.5c-0.5-1.8-1.8-3.1-3.6-3.6v-14c0-0.7-0.6-1.3-1.3-1.3
	s-1.3,0.6-1.3,1.3v14c-2.2,0.6-3.8,2.5-3.8,4.9c0,2.8,2.3,5,5,5c2.3,0,4.3-1.6,4.9-3.8h6.5c0.7,0,1.3-0.6,1.3-1.3
	C87.1,75.8,86.5,75.2,85.8,75.2z M74.5,79c-1.4,0-2.5-1.1-2.5-2.5s1.1-2.5,2.5-2.5c1.4,0,2.5,1.1,2.5,2.5S75.9,79,74.5,79z"/>
<path id="XMLID_148_" class="st3" d="M71.4,97.4H60.3c-0.8,0-1.4,0.6-1.4,1.4c0,0.8,0.6,1.4,1.4,1.4h11.1c0.8,0,1.4-0.6,1.4-1.4
	C72.8,98.1,72.2,97.4,71.4,97.4z M77,89.1H60.3c-0.8,0-1.4,0.6-1.4,1.4c0,0.8,0.6,1.4,1.4,1.4H77c0.8,0,1.4-0.6,1.4-1.4
	C78.4,89.7,77.7,89.1,77,89.1z M60.3,75.3h5.6c0.8,0,1.4-0.6,1.4-1.4c0-0.8-0.6-1.4-1.4-1.4h-5.6c-0.8,0-1.4,0.6-1.4,1.4
	C58.9,74.6,59.5,75.3,60.3,75.3z M58.9,82.2c0,0.8,0.6,1.4,1.4,1.4H77c0.8,0,1.4-0.6,1.4-1.4c0-0.8-0.6-1.4-1.4-1.4H60.3
	C59.5,80.8,58.9,81.4,58.9,82.2z M90.9,47.5H70c-3.1,0-5.6,2.5-5.6,5.5v4.2c0,0.8,0.6,1.4,1.4,1.4c0.8,0,1.4-0.6,1.4-1.4v-4.2
	c0-1.5,1.2-2.8,2.8-2.8h16.7v8.3c0,1.5,1.2,2.8,2.8,2.8h8.3v27.7c0,1.5-1.2,2.8-2.8,2.8h-4.2c-0.8,0-1.4,0.6-1.4,1.4
	c0,0.8,0.6,1.4,1.4,1.4H95c3.1,0,5.6-2.5,5.6-5.5V58.6L90.9,47.5z M89.5,58.6v-8.1l7.2,8.1H89.5z M56.1,61.4c-3.1,0-5.6,2.5-5.6,5.5
	v36c0,3.1,2.5,5.5,5.6,5.5h25c3.1,0,5.6-2.5,5.6-5.5V72.5L77,61.4H56.1z M83.9,103c0,1.5-1.2,2.8-2.8,2.8h-25
	c-1.5,0-2.8-1.2-2.8-2.8v-36c0-1.5,1.2-2.8,2.8-2.8h16.7v8.3c0,1.5,1.2,2.8,2.8,2.8h8.3V103z M75.6,72.5v-8.1l7.2,8.1H75.6z"/>
<path id="XMLID_179_" class="st3" d="M65.1,83l8.5-1.5l23-23c0.9-0.9,1.5-2.2,1.5-3.5c0-2.8-2.2-5-5-5c-1.4,0-2.6,0.6-3.5,1.5
	l-23,23L65.1,83z M90.9,52.9c0.5-0.5,1.3-0.9,2.1-0.9c1.7,0,3,1.3,3,3c0,0.8-0.3,1.6-0.9,2.1l-1.3,1.3l-4.2-4.2L90.9,52.9z
	 M88.2,55.6l4.2,4.2L74.1,78.2V76v-2h-2h-2.2L88.2,55.6z M68.3,76h3.7v3.7l-4.5,0.8L68.3,76z M97.1,65c-0.6,0-1,0.4-1,1v22
	c0,2.2-1.8,4-4,4h-32c-2.2,0-4-1.8-4-4V56c0-2.2,1.8-4,4-4h22c0.6,0,1-0.4,1-1c0-0.6-0.4-1-1-1h-22c-3.3,0-6,2.7-6,6v32
	c0,3.3,2.7,6,6,6h32c3.3,0,6-2.7,6-6V66C98.1,65.4,97.6,65,97.1,65z"/>
<path id="XMLID_185_" class="st3" d="M74.3,69.2c-2,0-3.7,1.6-3.7,3.6c0,2,1.6,3.6,3.7,3.6c2,0,3.7-1.6,3.7-3.6
	C77.9,70.9,76.3,69.2,74.3,69.2z M74.3,60.7c-6.8,0-12.3,5.4-12.3,12.1C62,79.6,67.5,85,74.3,85c6.8,0,12.3-5.4,12.3-12.1
	C86.5,66.2,81,60.7,74.3,60.7z M74.3,82.6c-5.4,0-9.8-4.3-9.8-9.7c0-5.4,4.4-9.7,9.8-9.7c5.4,0,9.8,4.3,9.8,9.7
	C84.1,78.2,79.7,82.6,74.3,82.6z M74.3,55.9c-14.9,0-27,12.1-27,17s12.1,17,27,17s27-12.1,27-17S89.2,55.9,74.3,55.9z M74.3,87.4
	c-13.6,0-24.5-10.4-24.5-14.6c0-4.2,11-14.6,24.5-14.6c13.6,0,24.5,10.4,24.5,14.6C98.8,77,87.8,87.4,74.3,87.4z"/>
</svg>
