<?xml version="1.0" encoding="utf-8"?>
<!-- Generator: Adobe Illustrator 16.0.0, SVG Export Plug-In . SVG Version: 6.00 Build 0)  -->
<!DOCTYPE svg PUBLIC "-//W3C//DTD SVG 1.1//EN" "http://www.w3.org/Graphics/SVG/1.1/DTD/svg11.dtd">
<svg version="1.1" id="Layer_1" xmlns="http://www.w3.org/2000/svg" xmlns:xlink="http://www.w3.org/1999/xlink" x="0px" y="0px"
	 width="39.333px" height="39.667px" viewBox="0 0 39.333 39.667" enable-background="new 0 0 39.333 39.667" xml:space="preserve">
<path fill="#beb7b3" d="M19.667,32.197c0.426,0,0.772-0.346,0.772-0.772V12.879c0-0.427-0.347-0.773-0.772-0.773
	c-0.427,0-0.773,0.346-0.773,0.773v18.545C18.894,31.851,19.24,32.197,19.667,32.197z M24.277,32.197
	c0.428,0.016,0.785-0.318,0.801-0.744l1.121-18.525c0.016-0.426-0.318-0.785-0.744-0.801c-0.427-0.015-0.785,0.318-0.801,0.745
	l-1.121,18.524C23.518,31.823,23.852,32.181,24.277,32.197z M32.805,7.47h-7.729V4.38c0-0.854-0.691-1.546-1.545-1.546h-7.729
	c-0.854,0-1.546,0.692-1.546,1.546v3.09H6.528c-0.427,0-0.772,0.346-0.772,0.773c0,0.426,0.346,0.772,0.772,0.772h1.546L9.62,33.743
	c0.248,1.692,1.384,3.091,3.091,3.091h13.911c1.708,0,2.802-1.416,3.091-3.091L31.26,9.015h1.545c0.427,0,0.773-0.346,0.773-0.772
	C33.578,7.816,33.231,7.47,32.805,7.47z M15.803,4.38h7.729v3.09h-7.729V4.38z M28.168,33.743c-0.104,0.815-0.691,1.546-1.546,1.546
	H12.711c-0.854,0-1.428-0.722-1.546-1.546L9.62,9.015h20.093L28.168,33.743z M15.059,32.197c0.426-0.016,0.759-0.374,0.743-0.801
	l-1.138-18.524c-0.016-0.426-0.374-0.759-0.801-0.744c-0.427,0.016-0.76,0.374-0.744,0.801l1.139,18.524
	C14.273,31.879,14.632,32.212,15.059,32.197z"/>
</svg>
