<?xml version="1.0" encoding="utf-8"?>
<!-- Generator: Adobe Illustrator 16.0.0, SVG Export Plug-In . SVG Version: 6.00 Build 0)  -->
<!DOCTYPE svg PUBLIC "-//W3C//DTD SVG 1.1//EN" "http://www.w3.org/Graphics/SVG/1.1/DTD/svg11.dtd">
<svg version="1.1" id="Layer_1" xmlns="http://www.w3.org/2000/svg" xmlns:xlink="http://www.w3.org/1999/xlink" x="0px" y="0px"
	 width="39.333px" height="39.667px" viewBox="0 0 39.333 39.667" enable-background="new 0 0 39.333 39.667" xml:space="preserve">
<path fill="#beb7b3" d="M11.166,28.333l6.597-1.131L35.538,9.43c0.699-0.7,1.131-1.666,1.131-2.732c0-2.134-1.729-3.864-3.863-3.864
	c-1.067,0-2.033,0.433-2.732,1.132L12.298,21.738L11.166,28.333z M31.166,5.058c0.42-0.419,0.999-0.679,1.64-0.679
	c1.279,0,2.318,1.039,2.318,2.318c0,0.64-0.26,1.22-0.68,1.64l-0.999,0.999l-3.278-3.278L31.166,5.058z M29.074,7.15l3.278,3.278
	l-14.23,14.229v-1.733v-1.545h-1.546h-1.733L29.074,7.15z M13.694,22.924h2.882v2.881l-3.478,0.596L13.694,22.924z M35.896,14.424
	c-0.427,0-0.772,0.347-0.772,0.773v17c0,1.707-1.385,3.091-3.092,3.091H7.302c-1.707,0-3.091-1.384-3.091-3.091V7.47
	c0-1.707,1.384-3.091,3.091-3.091h17.002c0.428,0,0.773-0.346,0.773-0.773c0-0.426-0.346-0.772-0.773-0.772H7.302
	c-2.561,0-4.637,2.076-4.637,4.637v24.727c0,2.561,2.076,4.636,4.637,4.636h24.73c2.562,0,4.637-2.075,4.637-4.636v-17
	C36.669,14.771,36.323,14.424,35.896,14.424z"/>
</svg>
