<?xml version="1.0" encoding="utf-8"?>
<!-- Generator: Adobe Illustrator 16.0.0, SVG Export Plug-In . SVG Version: 6.00 Build 0)  -->
<!DOCTYPE svg PUBLIC "-//W3C//DTD SVG 1.1//EN" "http://www.w3.org/Graphics/SVG/1.1/DTD/svg11.dtd">
<svg version="1.1" xmlns="http://www.w3.org/2000/svg" xmlns:xlink="http://www.w3.org/1999/xlink" x="0px" y="0px" width="148px"
	 height="150px" viewBox="0 0 148 150" enable-background="new 0 0 148 150" xml:space="preserve">
<g id="Layer_1" display="none">
	<g display="inline">
		<g>
			<path fill="#5D5E5E" d="M99.276,72.552L76.367,48.908c-3.692-3.812-8.604-5.911-13.826-5.911c-5.224,0-10.135,2.1-13.828,5.911
				c-7.624,7.868-7.624,20.671,0,28.54l22.91,23.643c3.693,3.812,8.604,5.912,13.827,5.912c5.223,0,10.133-2.1,13.827-5.912
				c3.693-3.811,5.728-8.879,5.728-14.27C105.005,81.432,102.97,76.363,99.276,72.552z M50.186,75.928
				c-6.812-7.03-6.812-18.47,0-25.499c3.3-3.406,7.688-5.282,12.355-5.282c4.666,0,9.055,1.876,12.354,5.281l12.354,12.751
				l-24.708,25.5L50.186,75.928z M97.804,99.571c-3.301,3.406-7.688,5.281-12.354,5.281c-4.668,0-9.055-1.875-12.355-5.281
				l-9.081-9.373l24.708-25.5l9.082,9.373c3.301,3.405,5.118,7.935,5.117,12.75C102.921,91.638,101.104,96.165,97.804,99.571z
				 M62.541,47.771c-3.985,0-7.733,1.604-10.555,4.516c-0.407,0.419-0.407,1.101,0,1.52c0.203,0.21,0.47,0.314,0.736,0.314
				s0.533-0.104,0.736-0.314c5.009-5.168,13.156-5.168,18.164,0c0.407,0.42,1.065,0.42,1.472,0c0.407-0.42,0.407-1.101,0-1.52
				C70.274,49.374,66.525,47.771,62.541,47.771z"/>
		</g>
	</g>
</g>
<g id="Layer_2" display="none">
	<path display="inline" fill="#5D5E5E" d="M79.78,89.838c0,0-5.815-1.376-5.815-7.406c0-5.298,2.39-7.164,3.312-8.452
		c0,0,1.895-1.647,0.627-6.968c2.113-2.915,2.512-8.067,0.213-13.522c-1.443-3.425-2.719-5.301-4.661-6.391
		C72.028,46.298,70.411,46,68.836,46c-2.934,0-5.715,1.032-6.825,1.754c-3.247,1.446-5.431,2.779-7.478,7.857
		c-1.661,4.12,0.338,8.894,1.379,11.219c-1.269,5.32,0.492,7.149,0.492,7.149c0.923,1.288,3.312,3.154,3.312,8.452
		c0,6.03-5.815,7.406-5.815,7.406C50.207,91.156,42.5,93.854,42.5,102.551c0,0,0,1.449,1.432,1.449c0.691,0,45.127,0,45.818,0
		c1.432,0,1.432-1.449,1.432-1.449C91.182,93.854,83.475,91.156,79.78,89.838z M45.463,101.102c0.706-4.955,5.063-6.976,9.262-8.483
		c2.815-0.735,7.855-3.731,7.855-10.187c0-5.525-2.251-8.217-3.461-9.664c-0.151-0.18-0.289-0.34-0.397-0.491
		c-0.034-0.046-0.068-0.091-0.105-0.136c-0.101-0.197-0.668-1.499,0.079-4.631c0.149-0.627,0.088-1.288-0.175-1.876
		c-0.71-1.587-2.597-5.803-1.337-8.927c1.706-4.233,3.225-5.071,5.98-6.299c0.137-0.062,0.269-0.133,0.394-0.215
		c0.694-0.452,2.953-1.293,5.277-1.293c1.276,0,2.363,0.247,3.231,0.733c1.03,0.579,2.006,1.649,3.415,4.993
		c1.994,4.729,1.493,8.766,0.113,10.669c-0.5,0.688-0.673,1.565-0.476,2.396c0.694,2.914,0.183,4.092,0.075,4.298
		c-0.084,0.091-0.163,0.187-0.236,0.287c-0.107,0.151-0.246,0.312-0.396,0.491c-1.21,1.447-3.461,4.139-3.461,9.664
		c0,6.457,5.042,9.451,7.857,10.187c4.158,1.488,8.551,3.501,9.26,8.483H45.463z M95.104,88.355c0,0-5.302-1.24-5.302-6.668
		c0-4.768,2.538-6.447,3.378-7.604c0,0,1.729-1.485,0.572-6.273c1.928-2.623,2.379-7.26,0.282-12.17
		c-1.314-3.082-2.925-4.77-4.695-5.751c-1.302-0.722-2.776-0.986-4.213-0.986c-2.141,0-4.177,0.592-5.431,1.162
		c0.366,0.718,0.715,1.478,1.055,2.288c0.05,0.115,0.084,0.233,0.13,0.35c0.811-0.365,2.437-0.902,4.246-0.902
		c1.127,0,2.082,0.213,2.839,0.633c0.889,0.492,2.215,1.48,3.441,4.357c1.744,4.087,1.28,7.611,0.049,9.29
		c-0.51,0.693-0.688,1.58-0.484,2.419c0.578,2.399,0.205,3.407,0.111,3.608c-0.075,0.082-0.145,0.169-0.211,0.26
		c-0.057,0.078-0.256,0.295-0.4,0.451c-1.235,1.344-3.533,3.842-3.533,8.869c0,5.987,4.713,8.765,7.353,9.45
		c3.774,1.333,7.452,2.997,8.206,7.062h-9.059c0.258,0.896,0.441,1.858,0.528,2.899c5.745,0,10.026,0,10.229,0
		c1.305,0,1.305-1.304,1.305-1.304C105.5,91.967,98.473,89.541,95.104,88.355z"/>
</g>
<g id="Layer_3" display="none">
	<g display="inline">
		<g>
			<path fill="#5D5E5E" d="M96.248,49.613c-5.374,0-9.747,4.402-9.747,9.813c0,4.977,3.701,9.09,8.476,9.721v15.88
				c0,9.881-7.985,17.92-17.798,17.92c-9.814,0-17.799-8.039-17.799-17.92v-0.854h5.085c5.375,0,9.747-4.402,9.747-9.814V46.626
				c0-0.708-0.568-1.28-1.271-1.28h-4.237c-0.133,0-0.26,0.026-0.381,0.064c-0.382-0.554-1.017-0.918-1.738-0.918
				c-1.17,0-2.119,0.955-2.119,2.133c0,1.178,0.949,2.133,2.119,2.133c0.722,0,1.356-0.364,1.738-0.918
				c0.121,0.038,0.248,0.064,0.381,0.064h2.966V74.36c0,4-3.231,7.253-7.204,7.253H51.752c-3.972,0-7.204-3.254-7.204-7.253V47.906
				h1.281c0.387,0.516,0.994,0.854,1.686,0.854c1.17,0,2.119-0.955,2.119-2.133c0-1.179-0.949-2.133-2.119-2.133
				c-0.69,0-1.299,0.337-1.686,0.854h-2.553c-0.702,0-1.271,0.572-1.271,1.28V74.36c0,5.412,4.372,9.814,9.746,9.814h5.085v0.854
				c0,11.291,9.126,20.48,20.342,20.48c11.215,0,20.34-9.189,20.34-20.48v-15.88c4.774-0.631,8.476-4.744,8.476-9.721
				C105.994,54.015,101.622,49.613,96.248,49.613z M96.248,66.68c-3.973,0-7.204-3.254-7.204-7.254s3.231-7.254,7.204-7.254
				c3.972,0,7.204,3.254,7.204,7.254S100.22,66.68,96.248,66.68z M96.248,53.879c-3.038,0-5.509,2.488-5.509,5.547
				s2.471,5.547,5.509,5.547c3.037,0,5.509-2.488,5.509-5.547S99.285,53.879,96.248,53.879z M96.248,62.413
				c-1.636,0-2.967-1.34-2.967-2.987c0-1.647,1.331-2.987,2.967-2.987s2.966,1.34,2.966,2.987
				C99.214,61.073,97.884,62.413,96.248,62.413z"/>
		</g>
	</g>
</g>
<g id="Layer_4" display="none">
	<path display="inline" fill="#5D5E5E" d="M68.364,60.909c0.778,0,1.409-0.63,1.409-1.409V45.409c0-0.779-0.631-1.409-1.409-1.409
		s-1.409,0.63-1.409,1.409V59.5C66.955,60.279,67.585,60.909,68.364,60.909z M76.818,60.909c0.777,0,1.409-0.63,1.409-1.409v-8.455
		c0-0.779-0.632-1.409-1.409-1.409c-0.778,0-1.409,0.63-1.409,1.409V59.5C75.409,60.279,76.04,60.909,76.818,60.909z M96.545,73.591
		h-2.817v-4.228c0-1.557-1.263-2.818-2.818-2.818H45.818c-1.557,0-2.818,1.262-2.818,2.818v16.91c0,7.188,3.858,13.461,9.605,16.908
		h-8.196c-0.778,0-1.409,0.631-1.409,1.409c0,0.779,0.631,1.409,1.409,1.409h18.318H74h18.318c0.777,0,1.409-0.63,1.409-1.409
		c0-0.778-0.632-1.409-1.409-1.409h-8.186c4.578-2.752,7.953-7.301,9.129-12.682h3.283c4.67,0,8.455-3.784,8.455-8.455
		C105,77.377,101.215,73.591,96.545,73.591z M74,103.182H62.728c-5.001,0-9.482-2.186-12.578-5.637h36.429
		C83.482,100.996,79.002,103.182,74,103.182z M90.909,86.273c0,3.083-0.839,5.965-2.281,8.454H48.099
		c-1.442-2.489-2.281-5.371-2.281-8.454v-16.91h45.091V86.273z M96.545,87.682h-2.889c0.033-0.467,0.071-0.933,0.071-1.408v-9.864
		h2.817c3.113,0,5.637,2.523,5.637,5.636C102.182,85.158,99.658,87.682,96.545,87.682z M59.909,63.728
		c0.778,0,1.409-0.631,1.409-1.409V48.228c0-0.779-0.631-1.409-1.409-1.409c-0.778,0-1.409,0.63-1.409,1.409v14.091
		C58.5,63.097,59.131,63.728,59.909,63.728z"/>
</g>
<g id="Layer_5" display="none">
	<path display="inline" fill="#5D5E5E" d="M74,97.545c-7.94,0-14.375-6.309-14.375-14.09c0-0.779-0.643-1.41-1.438-1.41
		c-0.795,0-1.438,0.631-1.438,1.41c0,9.338,7.724,16.908,17.25,16.908c0.795,0,1.438-0.63,1.438-1.408S74.795,97.545,74,97.545z
		 M74,44c-2.875,0-23,23.955-23,39.455C51,95.905,61.298,106,74,106c12.703,0,23-10.095,23-22.545C97,67.955,76.875,44,74,44z
		 M74,103.182c-11.115,0-20.125-9.176-20.125-20.494c0-13.324,18.688-35.341,20.125-35.341s20.125,22.017,20.125,35.341
		C94.125,94.006,85.115,103.182,74,103.182z"/>
</g>
<g id="Layer_6" display="none">
	<g display="inline">
		<g>
			<path fill="#5D5E5E" d="M47.01,53H32.193c-1.487,0-2.693,1.791-2.693,4v12c0,2.209,1.206,4,2.693,4H47.01
				c1.488,0,2.694-1.791,2.694-4V57C49.704,54.791,48.498,53,47.01,53z M48.357,69c0,1.104-0.604,2-1.348,2H32.193
				c-0.743,0-1.347-0.896-1.347-2V57c0-1.104,0.604-2,1.347-2H47.01c0.744,0,1.348,0.896,1.348,2V69z M69.908,77H55.092
				c-1.487,0-2.694,1.791-2.694,4v12c0,2.209,1.207,4,2.694,4h14.816c1.487,0,2.693-1.791,2.693-4V81
				C72.602,78.791,71.396,77,69.908,77z M71.255,93c0,1.104-0.603,2-1.347,2H55.092c-0.744,0-1.347-0.896-1.347-2V81
				c0-1.104,0.603-2,1.347-2h14.816c0.744,0,1.347,0.896,1.347,2V93z M69.908,53H55.092c-1.487,0-2.694,1.791-2.694,4v12
				c0,2.209,1.207,4,2.694,4h14.816c1.487,0,2.693-1.791,2.693-4V57C72.602,54.791,71.396,53,69.908,53z M71.255,69
				c0,1.104-0.603,2-1.347,2H55.092c-0.744,0-1.347-0.896-1.347-2V57c0-1.104,0.603-2,1.347-2h14.816c0.744,0,1.347,0.896,1.347,2
				V69z M47.01,77H32.193c-1.487,0-2.693,1.791-2.693,4v12c0,2.209,1.206,4,2.693,4H47.01c1.488,0,2.694-1.791,2.694-4V81
				C49.704,78.791,48.498,77,47.01,77z M48.357,93c0,1.104-0.604,2-1.348,2H32.193c-0.743,0-1.347-0.896-1.347-2V81
				c0-1.104,0.604-2,1.347-2H47.01c0.744,0,1.348,0.896,1.348,2V93z M92.806,53H77.99c-1.488,0-2.694,1.791-2.694,4v12
				c0,2.209,1.206,4,2.694,4h14.815c1.488,0,2.694-1.791,2.694-4V57C95.5,54.791,94.294,53,92.806,53z M94.153,69
				c0,1.104-0.604,2-1.348,2H77.99c-0.744,0-1.348-0.896-1.348-2V57c0-1.104,0.604-2,1.348-2h14.815c0.744,0,1.348,0.896,1.348,2V69
				z M92.806,77H77.99c-1.488,0-2.694,1.791-2.694,4v12c0,2.209,1.206,4,2.694,4h14.815c1.488,0,2.694-1.791,2.694-4V81
				C95.5,78.791,94.294,77,92.806,77z M94.153,93c0,1.104-0.604,2-1.348,2H77.99c-0.744,0-1.348-0.896-1.348-2V81
				c0-1.104,0.604-2,1.348-2h14.815c0.744,0,1.348,0.896,1.348,2V93z M115.806,77H100.99c-1.488,0-2.694,1.791-2.694,4v12
				c0,2.209,1.206,4,2.694,4h14.815c1.488,0,2.694-1.791,2.694-4V81C118.5,78.791,117.294,77,115.806,77z M117.153,93
				c0,1.104-0.604,2-1.348,2H100.99c-0.744,0-1.348-0.896-1.348-2V81c0-1.104,0.604-2,1.348-2h14.815c0.744,0,1.348,0.896,1.348,2
				V93z M115.806,53H100.99c-1.488,0-2.694,1.791-2.694,4v12c0,2.209,1.206,4,2.694,4h14.815c1.488,0,2.694-1.791,2.694-4V57
				C118.5,54.791,117.294,53,115.806,53z M117.153,69c0,1.104-0.604,2-1.348,2H100.99c-0.744,0-1.348-0.896-1.348-2V57
				c0-1.104,0.604-2,1.348-2h14.815c0.744,0,1.348,0.896,1.348,2V69z"/>
		</g>
	</g>
</g>
<g id="Layer_7" display="none">
	<path display="inline" fill="#5D5E5E" d="M94.5,84.318h-7.455v7.455H94.5V84.318z M83.318,97.363h-7.455v7.455h7.455V97.363z
		 M83.318,71.273h-7.455v7.454h7.455V71.273z M83.318,84.318h-7.455v7.455h7.455V84.318z M105.682,71.273h-7.454v7.454h7.454V71.273
		z M72.137,71.273h-7.455v7.454h7.455V71.273z M94.5,71.273h-7.455v7.454H94.5V71.273z M105.682,84.318h-7.454v7.455h7.454V84.318z
		 M49.772,71.273h-7.454v7.454h7.454V71.273z M49.772,84.318h-7.454v7.455h7.454V84.318z M72.137,84.318h-7.455v7.455h7.455V84.318z
		 M49.772,97.363h-7.454v7.455h7.454V97.363z M107.546,41.455h-7.455v-5.591c0-1.029-0.834-1.864-1.863-1.864
		c-1.03,0-1.864,0.835-1.864,1.864v5.591H51.637v-5.591c0-1.029-0.834-1.864-1.864-1.864c-1.029,0-1.863,0.835-1.863,1.864v5.591
		h-7.454c-4.117,0-7.455,3.338-7.455,7.457v11.18v3.728v44.727c0,4.117,3.338,7.455,7.455,7.455h67.091
		c4.116,0,7.454-3.338,7.454-7.455V63.818v-3.728v-11.18C115,44.792,111.662,41.455,107.546,41.455z M111.272,108.545
		c0,2.059-1.669,3.729-3.727,3.729H40.455c-2.059,0-3.728-1.67-3.728-3.729V63.818h74.545V108.545z M111.272,60.091H36.728v-11.18
		c0-2.061,1.669-3.729,3.728-3.729h7.454v5.591c0,1.03,0.834,1.864,1.863,1.864c1.03,0,1.864-0.834,1.864-1.864v-5.591h44.727v5.591
		c0,1.03,0.834,1.864,1.864,1.864c1.029,0,1.863-0.834,1.863-1.864v-5.591h7.455c2.058,0,3.727,1.669,3.727,3.729V60.091z
		 M60.954,97.363H53.5v7.455h7.454V97.363z M60.954,84.318H53.5v7.455h7.454V84.318z M72.137,97.363h-7.455v7.455h7.455V97.363z
		 M60.954,71.273H53.5v7.454h7.454V71.273z"/>
</g>
<g id="Layer_8">
	<path fill="none" stroke="#5D5E5E" stroke-width="3" stroke-miterlimit="10" d="M96.594,99.823c0-8.095-7.154-11.569-10.584-12.796
		c0,0-5.396-2.121-5.396-6.895c0-4.93,2.217-6.666,3.074-7.865c0,0,1.758-1.534,0.582-6.485c1.961-2.713,2.33-7.508,0.197-12.586
		c-1.34-3.188-2.523-4.934-4.326-5.948c-1.326-0.745-2.828-1.022-4.289-1.022c-2.723,0-5.305,0.961-6.335,1.633
		c-3.014,1.347-5.041,2.587-6.941,7.312c-1.542,3.836,0.314,8.278,1.28,10.442c-1.178,4.951,0.456,6.654,0.456,6.654
		c0.856,1.199,3.075,2.936,3.075,7.865c0,5.613-5.398,6.895-5.398,6.895c-3.429,1.227-10.582,4.701-10.582,12.796"/>
	<path fill-rule="evenodd" clip-rule="evenodd" fill="none" stroke="#5D5E5E" stroke-width="3" stroke-miterlimit="10" d="
		M66.333,91.024v-7"/>
	<path fill-rule="evenodd" clip-rule="evenodd" fill="none" stroke="#5D5E5E" stroke-width="3" stroke-miterlimit="10" d="
		M60.382,103.774v-8.161c0,0,0.364-3.741,6.725-3.741c0.15,0.13,5.179,1.354,5.179,3.741c0,2.385,0,8.161,0,8.161"/>
	<path fill-rule="evenodd" clip-rule="evenodd" fill="none" stroke="#5D5E5E" stroke-width="3" stroke-miterlimit="10" d="
		M84.024,93.323c0,0,1.591-4.768-2-9"/>
	<path fill-rule="evenodd" clip-rule="evenodd" fill="none" stroke="#5D5E5E" stroke-width="3" stroke-miterlimit="10" d="
		M84.2,93.323c2.485,0,4.5,2.015,4.5,4.5s-2.015,4.5-4.5,4.5s-4.5-2.015-4.5-4.5S81.715,93.323,84.2,93.323z"/>
</g>
<g id="Layer_9" display="none">
	<g display="inline">
		<g>
			<path fill="#5D5E5E" d="M94.938,58H53.062C52.475,58,52,58.476,52,59.062v31.875C52,91.524,52.475,92,53.062,92h41.875
				C95.524,92,96,91.524,96,90.938V59.062C96,58.476,95.524,58,94.938,58z M93.875,89.875h-39.75v-8.5h39.75V89.875z M93.875,79.25
				h-39.75v-8.5h39.75V79.25z M93.875,68.625h-39.75v-8.5h39.75V68.625z M62.625,63.312H56.25v2.125h6.375V63.312z M76.438,73.938
				H57.312v2.125h19.125V73.938z M67.938,84.562H57.312v2.125h10.625V84.562z"/>
		</g>
	</g>
</g>
<g id="Layer_10" display="none">
	<g display="inline">
		<g>
			<path fill="#5D5E5E" d="M102,63.062h-8V45.153c0-1.1-0.896-1.99-2-1.99H56c-1.104,0-2,0.891-2,1.99v17.908h-8
				c-2.206,0-4,1.786-4,3.979v23.878c0,2.193,1.794,3.979,4,3.979h10v9.949c0,1.099,0.896,1.989,2,1.989h32c1.104,0,2-0.891,2-1.989
				v-9.949h10c2.206,0,4-1.786,4-3.979V67.041C106,64.848,104.206,63.062,102,63.062z M58,47.143h32v15.918H58V47.143z M88,102.857
				H60V82.96h28V102.857z M102,90.919H92V82.96h2v-3.98H54v3.98h2v7.959H46V67.041h56V90.919z M96,71.021h-4V75h4V71.021z
				 M88,71.021h-4V75h4V71.021z M84,94.898H64v3.979h20V94.898z M84,86.938H64v3.98h20V86.938z"/>
		</g>
	</g>
</g>
<g id="Layer_11" display="none">
	<g display="inline">
		<g>
			<path fill="#5D5E5E" d="M98.616,42.5H61.692c-0.545,0-1.065,0.214-1.45,0.595L47.935,55.283
				c-0.385,0.381-0.602,0.898-0.602,1.436v48.75c0,1.121,0.918,2.031,2.052,2.031h49.231c1.133,0,2.051-0.91,2.051-2.031V44.531
				C100.667,43.41,99.749,42.5,98.616,42.5z M59.641,49.435v5.253h-5.304L59.641,49.435z M96.564,103.438H51.436V58.75h10.257
				c1.134,0,2.051-0.91,2.051-2.031V46.562h32.821V103.438z M56.673,77.271v14.174h3.107v-5.137c0.288,0.043,0.657,0.064,1.07,0.064
				c1.852,0,3.436-0.469,4.506-1.514c0.824-0.81,1.276-2.004,1.276-3.41c0-1.407-0.599-2.6-1.482-3.325
				c-0.925-0.769-2.306-1.151-4.238-1.151C58.998,76.973,57.64,77.1,56.673,77.271z M63.524,81.533c0,1.473-1.028,2.347-2.696,2.347
				c-0.453,0-0.781-0.021-1.048-0.085v-4.243c0.227-0.063,0.657-0.127,1.297-0.127C62.641,79.425,63.524,80.214,63.524,81.533z
				 M86.006,85.669h4.981v-2.642h-4.981v-3.284h5.33v-2.665h-8.478v14.367h3.147V85.669z M77.856,89.74
				c1.336-1.172,2.303-3.068,2.303-5.818c0-2.537-0.904-4.307-2.346-5.414c-1.338-1.045-3.045-1.535-5.679-1.535
				c-1.586,0-3.087,0.105-4.239,0.299v14.11c0.781,0.106,1.935,0.213,3.56,0.213C74.171,91.595,76.395,90.998,77.856,89.74z
				 M71.042,79.595c0.27-0.063,0.722-0.128,1.422-0.128c2.696,0,4.384,1.578,4.361,4.562c0,3.433-1.852,5.052-4.69,5.03
				c-0.391,0-0.823,0-1.093-0.063V79.595z"/>
		</g>
	</g>
</g>
<g id="Layer_12" display="none">
	<g display="inline">
		<g>
			<path fill="#5D5E5E" d="M98.616,42.5H61.692c-0.545,0-1.065,0.214-1.45,0.595L47.935,55.283
				c-0.385,0.381-0.602,0.898-0.602,1.436v48.75c0,1.121,0.918,2.031,2.052,2.031h49.231c1.133,0,2.051-0.91,2.051-2.031V44.531
				C100.667,43.41,99.749,42.5,98.616,42.5z M59.641,49.435v5.253h-5.304L59.641,49.435z M96.564,103.438H51.437V58.75h10.256
				c1.134,0,2.052-0.91,2.052-2.031V46.562h32.82V103.438z M62.619,82.154h-0.041c-0.324-0.799-0.628-1.491-1.033-2.353
				l-1.196-2.584h-3.546l3.81,6.995l-3.951,7.164h3.525l1.135-2.562c0.426-0.987,0.771-1.723,1.055-2.542h0.04
				c0.385,0.819,0.709,1.555,1.216,2.542l1.236,2.562h3.565l-4.052-7.248l3.85-6.911h-3.525l-1.155,2.584
				C63.207,80.621,62.943,81.251,62.619,82.154z M79.642,88.688h-5.431v-11.47H71.11v14.159h8.531V88.688z M86.005,88.96
				c-1.316,0-2.593-0.44-3.424-0.882l-0.629,2.646c0.771,0.441,2.311,0.863,3.871,0.863c3.748,0,5.512-2.018,5.511-4.392
				c0-1.996-1.134-3.299-3.546-4.223c-1.763-0.693-2.533-1.093-2.533-1.996c0-0.735,0.648-1.365,1.986-1.365s2.31,0.399,2.857,0.672
				l0.688-2.584c-0.811-0.378-1.944-0.714-3.484-0.714c-3.222,0-5.167,1.849-5.167,4.265c0,2.058,1.479,3.361,3.749,4.181
				c1.641,0.609,2.289,1.113,2.289,1.995C88.173,88.352,87.424,88.96,86.005,88.96z"/>
		</g>
	</g>
</g>
</svg>
