<?xml version="1.0" encoding="UTF-8" standalone="no"?>
<svg
   xmlns:dc="http://purl.org/dc/elements/1.1/"
   xmlns:cc="http://creativecommons.org/ns#"
   xmlns:rdf="http://www.w3.org/1999/02/22-rdf-syntax-ns#"
   xmlns:svg="http://www.w3.org/2000/svg"
   xmlns="http://www.w3.org/2000/svg"
   viewBox="0 0 147.5 147.5"
   height="147.5"
   width="147.5"
   xml:space="preserve"
   version="1.1"
   id="svg2"><metadata
     id="metadata8"><rdf:RDF><cc:Work
         rdf:about=""><dc:format>image/svg+xml</dc:format><dc:type
           rdf:resource="http://purl.org/dc/dcmitype/StillImage" /></cc:Work></rdf:RDF></metadata><defs
     id="defs6"><clipPath
       id="clipPath16"
       clipPathUnits="userSpaceOnUse"><path
         id="path18"
         d="M 27.534,118 C 12.39,118 0,105.61 0,90.467 l 0,0 0,-62.933 C 0,12.39 12.39,0 27.534,0 l 0,0 62.933,0 C 105.61,0 118,12.39 118,27.534 l 0,0 0,62.933 C 118,105.61 105.61,118 90.467,118 l 0,0 -62.933,0 z" /></clipPath><radialGradient
       id="radialGradient24"
       spreadMethod="pad"
       gradientTransform="matrix(74.571465,0,0,-74.571465,59.737499,83.583336)"
       gradientUnits="userSpaceOnUse"
       r="1"
       cy="0"
       cx="0"
       fy="0"
       fx="0"><stop
         id="stop26"
         offset="0"
         style="stop-opacity:1;stop-color:#a67368" /><stop
         id="stop28"
         offset="0.46111108"
         style="stop-opacity:1;stop-color:#a67368" /><stop
         id="stop30"
         offset="1"
         style="stop-opacity:1;stop-color:#815a50" /></radialGradient><clipPath
       id="clipPath38"
       clipPathUnits="userSpaceOnUse"><path
         id="path40"
         d="M 0,118 118,118 118,0 0,0 0,118 Z" /></clipPath></defs><g
     transform="matrix(1.25,0,0,-1.25,0,147.5)"
     id="g10"><g
       id="g12"><g
         clip-path="url(#clipPath16)"
         id="g14"><g
           id="g20"><g
             id="g22"><path
               id="path32"
               style="fill:url(#radialGradient24);stroke:none"
               d="M 27.534,118 C 12.39,118 0,105.61 0,90.467 l 0,0 0,-62.933 C 0,12.39 12.39,0 27.534,0 l 0,0 62.933,0 C 105.61,0 118,12.39 118,27.534 l 0,0 0,62.933 C 118,105.61 105.61,118 90.467,118 l 0,0 -62.933,0 z" /></g></g></g></g><g
       id="g34"><g
         clip-path="url(#clipPath38)"
         id="g36"><g
           transform="translate(67.1848,41.7811)"
           id="g42"><path
             id="path44"
             style="fill:#ffffff;fill-opacity:1;fill-rule:nonzero;stroke:none"
             d="m 0,0 c -1.004,1.399 -3.014,3.527 -5.964,3.527 -4.013,0 -6.313,-3.984 -6.661,-4.635 -0.007,-0.005 -0.015,-0.009 -0.022,-0.013 l -3.698,0 c -1.281,0 -2.504,-0.769 -3.114,-1.856 l -0.887,14.669 c -0.044,0.924 -0.146,3.09 -2.161,3.167 -2.023,0.111 -2.3,-2.023 -2.413,-2.922 L -27.046,-1.34 c -0.516,0.255 -1.08,0.397 -1.64,0.397 l -3.656,-0.001 c -0.101,0.012 -0.332,0.12 -0.392,0.174 -0.224,0.268 -2.276,2.614 -5.173,2.614 -2.887,0 -4.945,-2.344 -5.158,-2.599 -0.074,-0.069 -0.305,-0.177 -0.382,-0.188 l -0.851,0 c -3.256,4.837 -4.013,9.011 -3.717,13.368 0.378,5.579 5.74,11.796 12.829,11.796 3.755,0 7.623,-1.783 11.184,-5.155 0.868,-0.823 2.227,-0.823 3.096,-10e-4 3.561,3.373 7.428,5.156 11.184,5.156 7.089,0 12.451,-6.217 12.83,-11.796 C 3.384,8.354 2.742,4.442 0,0 m -22.453,-20.485 c -10.247,7.116 -16.608,12.724 -20.432,17.603 0.52,0.143 1.058,0.453 1.356,0.811 0.065,0.077 1.616,1.891 3.622,1.891 2.013,0 3.607,-1.872 3.621,-1.889 0.413,-0.495 1.274,-0.898 1.92,-0.898 l 3.68,0 c 0.557,0 1.181,-0.351 1.516,-0.853 0.231,-0.347 0.651,-0.517 1.057,-0.428 0.407,0.089 0.718,0.418 0.784,0.829 l 2.408,15.036 c 0.002,0.011 0.006,0.048 0.008,0.06 0.042,0.334 0.129,1.031 0.245,1.159 0,0 0.017,0.004 0.072,10e-4 0.021,0 0.035,-0.005 0.041,-10e-4 0.138,-0.186 0.172,-0.922 0.188,-1.254 l 1.208,-19.985 c 0.03,-0.487 0.403,-0.884 0.888,-0.943 0.041,-0.005 0.083,-0.007 0.123,-0.007 0.437,0 0.832,0.283 0.965,0.709 l 1.363,4.355 c 0.162,0.62 0.838,1.144 1.475,1.144 l 3.79,0 c 0.643,0 1.402,0.467 1.693,1.042 0.018,0.036 1.854,3.606 4.898,3.606 2.558,0 4.243,-2.484 4.742,-3.326 -3.713,-5.126 -10.237,-11.026 -21.231,-18.662 M 5.128,12.562 c -0.44,6.472 -6.646,13.683 -14.85,13.683 -4.283,0 -8.632,-1.974 -12.576,-5.71 -0.087,-0.083 -0.224,-0.083 -0.312,0 -3.945,3.736 -8.294,5.71 -12.576,5.71 -8.204,0 -14.41,-7.211 -14.848,-13.683 -0.676,-9.964 3.526,-18.904 27.006,-35.11 0.173,-0.12 0.374,-0.18 0.575,-0.18 0.2,0 0.402,0.06 0.574,0.18 C 1.6,-6.342 5.803,2.598 5.128,12.562" /></g><g
           transform="translate(98.9527,75.564)"
           id="g46"><path
             id="path48"
             style="fill:#ffffff;fill-opacity:1;fill-rule:nonzero;stroke:none"
             d="m 0,0 -59.026,0 0,8.537 c 0,2.621 2.229,4.754 4.969,4.754 l 9.431,0 0,-7.593 c 0,-0.511 0.44,-0.926 0.981,-0.926 0.542,0 0.982,0.415 0.982,0.926 l 0,7.593 26.3,0 0,-7.593 c 0,-0.511 0.44,-0.926 0.981,-0.926 0.542,0 0.982,0.415 0.982,0.926 l 0,7.593 9.431,0 C -2.229,13.291 0,11.158 0,8.537 L 0,0 Z m -4.969,15.142 -9.431,0 0,7.592 c 0,0.511 -0.44,0.926 -0.982,0.926 -0.541,0 -0.981,-0.415 -0.981,-0.926 l 0,-7.592 -26.3,0 0,7.592 c 0,0.511 -0.44,0.926 -0.982,0.926 -0.541,0 -0.981,-0.415 -0.981,-0.926 l 0,-7.592 -9.431,0 c -3.823,0 -6.932,-2.963 -6.932,-6.605 l 0,-16.272 c 0.658,-0.264 1.313,-0.567 1.963,-0.914 l 0,6.798 59.026,0 0,-30.785 c 0,-2.621 -2.229,-4.753 -4.969,-4.753 l -25.623,0 c -0.443,-0.608 -0.924,-1.225 -1.44,-1.851 l 27.063,0 c 3.822,0 6.932,2.963 6.932,6.604 l 0,41.173 c 0,3.642 -3.11,6.605 -6.932,6.605" /></g></g></g></g></svg>